<svg width="9" height="10" viewBox="0 0 9 10" fill="none" xmlns="http://www.w3.org/2000/svg">
<path d="M4.23991 6.9764L1.64748 4.01316C1.34153 3.66451 1.59018 3.11694 2.05451 3.11694H7.23937C7.34329 3.11685 7.44503 3.14672 7.53241 3.20297C7.61978 3.25921 7.6891 3.33945 7.73205 3.43407C7.775 3.5287 7.78976 3.6337 7.77457 3.7365C7.75938 3.8393 7.71488 3.93554 7.6464 4.0137L5.05397 6.97586C5.00323 7.03392 4.94066 7.08046 4.87046 7.11234C4.80025 7.14422 4.72404 7.16072 4.64694 7.16072C4.56984 7.16072 4.49362 7.14422 4.42342 7.11234C4.35322 7.08046 4.29065 7.03392 4.23991 6.97586V6.9764Z" fill="white"/>
</svg>
