<svg width="18" height="18" viewBox="0 0 18 18" fill="none" xmlns="http://www.w3.org/2000/svg">
<g clip-path="url(#clip0_547_2012)">
<path d="M15.5394 15.4144L12.3062 12.1755L15.5394 15.4144ZM14.098 7.84683C14.098 9.47158 13.4525 11.0298 12.3037 12.1787C11.1548 13.3275 9.59658 13.973 7.97183 13.973C6.34708 13.973 4.78888 13.3275 3.64 12.1787C2.49113 11.0298 1.8457 9.47158 1.8457 7.84683C1.8457 6.22208 2.49113 4.66388 3.64 3.515C4.78888 2.36613 6.34708 1.7207 7.97183 1.7207C9.59658 1.7207 11.1548 2.36613 12.3037 3.515C13.4525 4.66388 14.098 6.22208 14.098 7.84683V7.84683Z" stroke="#9E9E9E" stroke-width="1.62162" stroke-linecap="round" stroke-linejoin="round"/>
</g>
<defs>
<clipPath id="clip0_547_2012">
<rect width="17.2973" height="17.2973" fill="white" transform="translate(0.404297 0.279297)"/>
</clipPath>
</defs>
</svg>
