<svg width="21" height="21" viewBox="0 0 21 21" fill="none" xmlns="http://www.w3.org/2000/svg">
<path d="M9.77288 4.03589H4.09721C3.66713 4.03589 3.25466 4.20674 2.95055 4.51085C2.64643 4.81496 2.47559 5.22743 2.47559 5.65751V17.0089C2.47559 17.4389 2.64643 17.8514 2.95055 18.1555C3.25466 18.4596 3.66713 18.6305 4.09721 18.6305H15.4486C15.8786 18.6305 16.2911 18.4596 16.5952 18.1555C16.8993 17.8514 17.0702 17.4389 17.0702 17.0089V11.3332" stroke="#624DE3" stroke-width="1.62162" stroke-linecap="round" stroke-linejoin="round"/>
<path d="M15.8534 2.81969C16.1759 2.49713 16.6134 2.31592 17.0696 2.31592C17.5257 2.31592 17.9632 2.49713 18.2858 2.81969C18.6084 3.14225 18.7896 3.57974 18.7896 4.03591C18.7896 4.49208 18.6084 4.92956 18.2858 5.25212L10.5831 12.9548L7.33984 13.7656L8.15065 10.5224L15.8534 2.81969Z" stroke="#624DE3" stroke-width="1.62162" stroke-linecap="round" stroke-linejoin="round"/>
</svg>
