<svg width="19" height="18" viewBox="0 0 19 18" fill="none" xmlns="http://www.w3.org/2000/svg">
<path d="M9.90886 3.25222C9.90886 3.03718 9.82344 2.83094 9.67138 2.67889C9.51933 2.52683 9.31309 2.44141 9.09805 2.44141C8.88301 2.44141 8.67678 2.52683 8.52472 2.67889C8.37267 2.83094 8.28724 3.03718 8.28724 3.25222V7.84681H3.69265C3.47761 7.84681 3.27137 7.93224 3.11932 8.08429C2.96726 8.23635 2.88184 8.44258 2.88184 8.65762C2.88184 8.87266 2.96726 9.0789 3.11932 9.23095C3.27137 9.38301 3.47761 9.46843 3.69265 9.46843H8.28724V14.063C8.28724 14.2781 8.37267 14.4843 8.52472 14.6364C8.67678 14.7884 8.88301 14.8738 9.09805 14.8738C9.31309 14.8738 9.51933 14.7884 9.67138 14.6364C9.82344 14.4843 9.90886 14.2781 9.90886 14.063V9.46843H14.5035C14.7185 9.46843 14.9247 9.38301 15.0768 9.23095C15.2288 9.0789 15.3143 8.87266 15.3143 8.65762C15.3143 8.44258 15.2288 8.23635 15.0768 8.08429C14.9247 7.93224 14.7185 7.84681 14.5035 7.84681H9.90886V3.25222Z" fill="white"/>
</svg>
