<svg width="20" height="21" viewBox="0 0 20 21" fill="none" xmlns="http://www.w3.org/2000/svg">
<path d="M2.71875 5.65747H4.34037H17.3133" stroke="#A30D11" stroke-width="1.62162" stroke-linecap="round" stroke-linejoin="round"/>
<path d="M6.77228 5.65755V4.03593C6.77228 3.60585 6.94313 3.19338 7.24724 2.88927C7.55135 2.58516 7.96382 2.41431 8.3939 2.41431H11.6371C12.0672 2.41431 12.4797 2.58516 12.7838 2.88927C13.0879 3.19338 13.2588 3.60585 13.2588 4.03593V5.65755M15.6912 5.65755V17.0089C15.6912 17.439 15.5203 17.8514 15.2162 18.1556C14.9121 18.4597 14.4997 18.6305 14.0696 18.6305H5.96147C5.53138 18.6305 5.11892 18.4597 4.81481 18.1556C4.51069 17.8514 4.33984 17.439 4.33984 17.0089V5.65755H15.6912Z" stroke="#A30D11" stroke-width="1.62162" stroke-linecap="round" stroke-linejoin="round"/>
<path d="M8.39453 9.71167V14.5765" stroke="#A30D11" stroke-width="1.62162" stroke-linecap="round" stroke-linejoin="round"/>
<path d="M11.6377 9.71167V14.5765" stroke="#A30D11" stroke-width="1.62162" stroke-linecap="round" stroke-linejoin="round"/>
</svg>
