<svg width="19" height="19" viewBox="0 0 19 19" fill="none" xmlns="http://www.w3.org/2000/svg">
<path d="M18.7705 4.92773V16.9277C18.7705 17.4777 18.5747 17.9486 18.183 18.3402C17.7913 18.7319 17.3205 18.9277 16.7705 18.9277H2.77051C2.22051 18.9277 1.74967 18.7319 1.35801 18.3402C0.966341 17.9486 0.770508 17.4777 0.770508 16.9277V2.92773C0.770508 2.37773 0.966341 1.9069 1.35801 1.51523C1.74967 1.12357 2.22051 0.927734 2.77051 0.927734H14.7705L18.7705 4.92773ZM16.7705 5.77773L13.9205 2.92773H2.77051V16.9277H16.7705V5.77773ZM9.77051 15.9277C10.6038 15.9277 11.3122 15.6361 11.8955 15.0527C12.4788 14.4694 12.7705 13.7611 12.7705 12.9277C12.7705 12.0944 12.4788 11.3861 11.8955 10.8027C11.3122 10.2194 10.6038 9.92773 9.77051 9.92773C8.93717 9.92773 8.22884 10.2194 7.64551 10.8027C7.06217 11.3861 6.77051 12.0944 6.77051 12.9277C6.77051 13.7611 7.06217 14.4694 7.64551 15.0527C8.22884 15.6361 8.93717 15.9277 9.77051 15.9277ZM3.77051 7.92773H12.7705V3.92773H3.77051V7.92773ZM2.77051 5.77773V16.9277V2.92773V5.77773Z" fill="#E8EAED"/>
</svg>
