<svg width="17" height="21" viewBox="0 0 17 21" fill="none" xmlns="http://www.w3.org/2000/svg">
<path d="M7.71875 17.9277H9.71875V13.7527L11.3188 15.3527L12.7188 13.9277L8.71875 9.92773L4.71875 13.9277L6.14375 15.3277L7.71875 13.7527V17.9277ZM2.71875 20.9277C2.16875 20.9277 1.69792 20.7319 1.30625 20.3402C0.914583 19.9486 0.71875 19.4777 0.71875 18.9277V2.92773C0.71875 2.37773 0.914583 1.9069 1.30625 1.51523C1.69792 1.12357 2.16875 0.927734 2.71875 0.927734H10.7188L16.7188 6.92773V18.9277C16.7188 19.4777 16.5229 19.9486 16.1313 20.3402C15.7396 20.7319 15.2688 20.9277 14.7188 20.9277H2.71875ZM9.71875 7.92773V2.92773H2.71875V18.9277H14.7188V7.92773H9.71875Z" fill="#E8EAED"/>
</svg>
