<svg width="30" height="29" viewBox="0 0 30 29" fill="none" xmlns="http://www.w3.org/2000/svg">
<path fill-rule="evenodd" clip-rule="evenodd" d="M6.95219 5.03394C4.96793 5.03394 3.35938 6.64249 3.35938 8.62675V20.6028C3.35938 22.5871 4.96793 24.1956 6.95219 24.1956H23.7187C25.7029 24.1956 27.3115 22.5871 27.3115 20.6028V8.62675C27.3115 6.64249 25.7029 5.03394 23.7187 5.03394H6.95219ZM6.74323 7.44731C6.81108 7.43537 6.88091 7.42914 6.95219 7.42914H23.7187C23.7899 7.42914 23.8598 7.43537 23.9276 7.44732L15.3354 13.1755L6.74323 7.44731ZM5.75458 9.6669V20.6028C5.75458 21.2642 6.29077 21.8004 6.95219 21.8004H23.7187C24.3801 21.8004 24.9163 21.2642 24.9163 20.6028V9.66692L15.9998 15.6113C15.5975 15.8794 15.0734 15.8794 14.6711 15.6113L5.75458 9.6669Z" fill="#303030"/>
</svg>
