<svg width="30" height="29" viewBox="0 0 30 29" fill="none" xmlns="http://www.w3.org/2000/svg">
<path fill-rule="evenodd" clip-rule="evenodd" d="M15.2992 5.03364C11.9922 5.03364 9.31123 7.71457 9.31123 11.0217C9.31123 14.3605 11.2414 19.246 15.2992 23.6627C19.3571 19.246 21.2873 14.3605 21.2873 11.0217C21.2873 7.71457 18.6063 5.03364 15.2992 5.03364ZM6.91602 11.0217C6.91602 6.39173 10.6693 2.63843 15.2992 2.63843C19.9292 2.63843 23.6825 6.39173 23.6825 11.0217C23.6825 15.3955 21.0903 21.2955 16.1461 26.2398C15.6784 26.7074 14.9201 26.7074 14.4524 26.2398C9.50817 21.2955 6.91602 15.3955 6.91602 11.0217Z" fill="#303030"/>
<path fill-rule="evenodd" clip-rule="evenodd" d="M15.2992 12.2193C15.9607 12.2193 16.4969 11.6831 16.4969 11.0217C16.4969 10.3602 15.9607 9.82406 15.2992 9.82406C14.6378 9.82406 14.1016 10.3602 14.1016 11.0217C14.1016 11.6831 14.6378 12.2193 15.2992 12.2193ZM15.2992 14.6145C17.2835 14.6145 18.8921 13.0059 18.8921 11.0217C18.8921 9.03741 17.2835 7.42885 15.2992 7.42885C13.315 7.42885 11.7064 9.03741 11.7064 11.0217C11.7064 13.0059 13.315 14.6145 15.2992 14.6145Z" fill="#303030"/>
</svg>
