<svg width="29" height="29" viewBox="0 0 29 29" fill="none" xmlns="http://www.w3.org/2000/svg">
<path fill-rule="evenodd" clip-rule="evenodd" d="M5.36972 5.38076C5.02701 5.72385 4.71277 6.1447 4.5096 6.51116C4.25441 6.95905 4.06602 7.45021 3.95245 7.96086L3.89334 8.2694C2.96189 12.9951 4.14482 17.2226 8.04981 21.0998C10.612 23.6437 12.5548 24.689 15.215 25.0707C15.6461 25.1325 16.0964 25.179 16.6322 25.2186L17.7337 25.2856C18.3484 25.3173 19.3726 25.3684 19.7223 25.3883C20.1828 25.4145 20.792 25.3264 21.6108 25.1346L21.7349 25.0983C22.4497 24.8458 23.1023 24.4362 23.6488 23.8891C25.6486 21.887 25.6486 18.6411 23.6488 16.6391L23.4706 16.469C21.5374 14.7086 18.5812 14.6925 16.6299 16.4293L16.3986 16.6387L15.1622 17.8764C14.8913 18.1477 14.4647 18.1844 14.1514 17.9635C13.4998 17.5039 11.7684 15.8093 11.3457 15.2318C11.1159 14.9178 11.1493 14.483 11.4243 14.2079L12.5135 13.1181L12.6067 13.0422L12.7451 12.9141C12.77 12.89 12.7954 12.8651 12.8206 12.8399C14.8781 10.7801 14.8781 7.44053 12.8206 5.38076C10.7631 3.321 7.42723 3.321 5.36972 5.38076ZM7.04095 7.05383C8.17547 5.91807 10.0149 5.91807 11.1494 7.05383C12.2839 8.18959 12.2839 10.031 11.1494 11.1668C11.0792 11.2371 11.0061 11.3033 10.9302 11.3653L9.75345 12.5344C8.65354 13.6351 8.5201 15.3743 9.43913 16.6301C10.0143 17.416 11.9302 19.2912 12.7902 19.8978L12.9561 20.0072C14.1905 20.7669 15.7968 20.5873 16.8334 19.5495L17.9765 18.4049L17.9921 18.3969L18.1022 18.2892C19.1809 17.2334 20.9094 17.2428 21.9776 18.3122C23.0544 19.3902 23.0544 21.138 21.9776 22.216L21.7939 22.3843C21.604 22.5434 21.396 22.6744 21.1744 22.7757L20.9955 22.8477L20.6917 22.9146L20.3709 22.9747C20.1295 23.0151 19.9546 23.0316 19.8566 23.026L17.4568 22.9014L16.821 22.86L16.2696 22.8136C16.0111 22.7887 15.7756 22.7608 15.5503 22.7285C13.4206 22.423 11.9323 21.6222 9.71414 19.4198C6.49102 16.2196 5.49199 12.9094 6.15055 9.06068L6.21944 8.68653C6.28187 8.30333 6.3975 7.97313 6.56943 7.67128C6.67411 7.48264 6.85615 7.23883 7.04095 7.05383Z" fill="#303030"/>
</svg>
