<svg width="34" height="33" viewBox="0 0 34 33" fill="none" xmlns="http://www.w3.org/2000/svg">
<path d="M10.6611 9.67427H23.4605V6.97966C23.4605 4.28505 22.4501 2.93774 19.4186 2.93774H14.703C11.6716 2.93774 10.6611 4.28505 10.6611 6.97966V9.67427Z" stroke="#303030" stroke-width="1.61677" stroke-linecap="round" stroke-linejoin="round"/>
<path d="M22.4493 20.4531V25.8423C22.4493 28.537 21.102 29.8843 18.4074 29.8843H15.7128C13.0182 29.8843 11.6709 28.537 11.6709 25.8423V20.4531H22.4493Z" stroke="#303030" stroke-width="1.61677" stroke-linecap="round" stroke-linejoin="round"/>
<path d="M29.1861 13.7165V20.453C29.1861 23.1476 27.8388 24.4949 25.1441 24.4949H22.4495V20.453H11.6711V24.4949H8.97649C6.28188 24.4949 4.93457 23.1476 4.93457 20.453V13.7165C4.93457 11.0219 6.28188 9.67456 8.97649 9.67456H25.1441C27.8388 9.67456 29.1861 11.0219 29.1861 13.7165Z" stroke="#303030" stroke-width="1.61677" stroke-linecap="round" stroke-linejoin="round"/>
<path d="M23.7963 20.4531H22.1661H10.3232" stroke="#303030" stroke-width="1.61677" stroke-linecap="round" stroke-linejoin="round"/>
<path d="M10.3232 15.0637H14.3652" stroke="#303030" stroke-width="1.61677" stroke-linecap="round" stroke-linejoin="round"/>
</svg>
