<svg width="18" height="15" viewBox="0 0 18 15" fill="none" xmlns="http://www.w3.org/2000/svg">
<path d="M3.66897 14.0999V6.88891L1.46231 8.5833L0.516602 7.32236L9.1856 0.702393L12.338 3.10607V1.49048H14.7022V4.91868L17.8546 7.32236L16.9089 8.5833L14.7022 6.88891V14.0999H9.97369V9.37139H8.39751V14.0999H3.66897ZM5.24515 12.5238H6.82133V7.79521H11.5499V12.5238H13.1261V5.68707L9.1856 2.69232L5.24515 5.68707V12.5238ZM7.60942 6.23873H10.7618C10.7618 5.81842 10.6042 5.47363 10.2889 5.20436C9.97369 4.9351 9.60592 4.80047 9.1856 4.80047C8.76529 4.80047 8.39751 4.9351 8.08228 5.20436C7.76704 5.47363 7.60942 5.81842 7.60942 6.23873Z" fill="white"/>
</svg>
