<svg width="18" height="15" viewBox="0 0 18 15" fill="none" xmlns="http://www.w3.org/2000/svg">
<path d="M0.380859 14.6444V12.4377C0.380859 12.0043 0.492506 11.5971 0.715798 11.2162C0.939091 10.8353 1.24776 10.5463 1.64181 10.3493C2.31168 10.0078 3.06694 9.71881 3.90757 9.48238C4.7482 9.24596 5.6742 9.12774 6.68559 9.12774C7.69697 9.12774 8.62298 9.24596 9.46361 9.48238C10.3042 9.71881 11.0595 10.0078 11.7294 10.3493C12.1234 10.5463 12.4321 10.8353 12.6554 11.2162C12.8787 11.5971 12.9903 12.0043 12.9903 12.4377V14.6444H0.380859ZM1.95704 13.0682H11.4141V12.4377C11.4141 12.2932 11.378 12.1619 11.3058 12.0437C11.2335 11.9255 11.1383 11.8335 11.0201 11.7678C10.5472 11.5314 9.93975 11.295 9.19763 11.0586C8.45551 10.8221 7.61816 10.7039 6.68559 10.7039C5.75301 10.7039 4.91567 10.8221 4.17355 11.0586C3.43143 11.295 2.82394 11.5314 2.35109 11.7678C2.23287 11.8335 2.13765 11.9255 2.0654 12.0437C1.99316 12.1619 1.95704 12.2932 1.95704 12.4377V13.0682ZM6.68559 8.33965C5.81869 8.33965 5.07657 8.03098 4.45923 7.41364C3.84189 6.79631 3.53322 6.05419 3.53322 5.18729H3.3362C3.21799 5.18729 3.12276 5.15117 3.05052 5.07892C2.97828 5.00668 2.94216 4.91145 2.94216 4.79324C2.94216 4.67503 2.97828 4.5798 3.05052 4.50756C3.12276 4.43532 3.21799 4.3992 3.3362 4.3992H3.53322C3.53322 3.80813 3.67771 3.27617 3.96667 2.80331C4.25564 2.33046 4.63655 1.95611 5.10941 1.68028V2.42897C5.10941 2.54718 5.14553 2.64241 5.21777 2.71465C5.29001 2.78689 5.38524 2.82301 5.50345 2.82301C5.62166 2.82301 5.71689 2.78689 5.78913 2.71465C5.86138 2.64241 5.8975 2.54718 5.8975 2.42897V1.36504C6.01571 1.32564 6.14049 1.29609 6.27184 1.27638C6.40319 1.25668 6.5411 1.24683 6.68559 1.24683C6.83007 1.24683 6.96799 1.25668 7.09934 1.27638C7.23068 1.29609 7.35547 1.32564 7.47368 1.36504V2.42897C7.47368 2.54718 7.5098 2.64241 7.58204 2.71465C7.65428 2.78689 7.74951 2.82301 7.86772 2.82301C7.98594 2.82301 8.08117 2.78689 8.15341 2.71465C8.22565 2.64241 8.26177 2.54718 8.26177 2.42897V1.68028C8.73462 1.95611 9.11554 2.33046 9.4045 2.80331C9.69347 3.27617 9.83795 3.80813 9.83795 4.3992H10.035C10.1532 4.3992 10.2484 4.43532 10.3207 4.50756C10.3929 4.5798 10.429 4.67503 10.429 4.79324C10.429 4.91145 10.3929 5.00668 10.3207 5.07892C10.2484 5.15117 10.1532 5.18729 10.035 5.18729H9.83795C9.83795 6.05419 9.52928 6.79631 8.91194 7.41364C8.29461 8.03098 7.55249 8.33965 6.68559 8.33965ZM6.68559 6.76347C7.11904 6.76347 7.4901 6.60913 7.79877 6.30047C8.10744 5.9918 8.26177 5.62074 8.26177 5.18729H5.10941C5.10941 5.62074 5.26374 5.9918 5.57241 6.30047C5.88108 6.60913 6.25214 6.76347 6.68559 6.76347ZM12.5963 9.91583L12.4781 9.32476C12.3992 9.29849 12.3237 9.26894 12.2515 9.2361C12.1792 9.20327 12.1103 9.15401 12.0446 9.08834L11.4929 9.28536L11.0989 8.57608L11.5323 8.18203V7.70918L11.0989 7.31513L11.4929 6.60585L12.0446 6.80287C12.0971 6.75033 12.1628 6.70436 12.2416 6.66496C12.3204 6.62555 12.3992 6.59272 12.4781 6.56645L12.5963 5.97538H13.3844L13.5026 6.56645C13.5814 6.59272 13.6602 6.62555 13.739 6.66496C13.8178 6.70436 13.8835 6.75033 13.936 6.80287L14.4877 6.60585L14.8817 7.31513L14.4483 7.70918V8.18203L14.8817 8.57608L14.4877 9.28536L13.936 9.08834C13.8704 9.15401 13.8014 9.20327 13.7292 9.2361C13.6569 9.26894 13.5814 9.29849 13.5026 9.32476L13.3844 9.91583H12.5963ZM12.9903 8.53667C13.1479 8.53667 13.2859 8.47757 13.4041 8.35935C13.5223 8.24114 13.5814 8.10322 13.5814 7.94561C13.5814 7.78799 13.5223 7.65007 13.4041 7.53186C13.2859 7.41364 13.1479 7.35454 12.9903 7.35454C12.8327 7.35454 12.6948 7.41364 12.5766 7.53186C12.4584 7.65007 12.3992 7.78799 12.3992 7.94561C12.3992 8.10322 12.4584 8.24114 12.5766 8.35935C12.6948 8.47757 12.8327 8.53667 12.9903 8.53667ZM14.4089 5.97538L14.2513 5.14788C14.133 5.10848 14.0247 5.05922 13.9262 5.00011C13.8277 4.94101 13.739 4.87205 13.6602 4.79324L12.8327 5.06907L12.281 4.12336L12.9509 3.5323C12.9246 3.46662 12.9115 3.41408 12.9115 3.37468V3.05944C12.9115 3.02004 12.9246 2.9675 12.9509 2.90182L12.281 2.31075L12.8327 1.36504L13.6602 1.64088C13.739 1.56207 13.8277 1.49311 13.9262 1.434C14.0247 1.3749 14.133 1.32564 14.2513 1.28624L14.4089 0.45874H15.5122L15.6698 1.28624C15.788 1.32564 15.8964 1.3749 15.9949 1.434C16.0934 1.49311 16.1821 1.56207 16.2609 1.64088L17.0884 1.36504L17.6401 2.31075L16.9702 2.90182C16.9964 2.9675 17.0096 3.02004 17.0096 3.05944V3.37468C17.0096 3.41408 16.9964 3.46662 16.9702 3.5323L17.6401 4.12336L17.0884 5.06907L16.2609 4.79324C16.1821 4.87205 16.0934 4.94101 15.9949 5.00011C15.8964 5.05922 15.788 5.10848 15.6698 5.14788L15.5122 5.97538H14.4089ZM14.9605 4.20217C15.2364 4.20217 15.4695 4.10695 15.66 3.91649C15.8504 3.72603 15.9457 3.49289 15.9457 3.21706C15.9457 2.94123 15.8504 2.70808 15.66 2.51763C15.4695 2.32717 15.2364 2.23195 14.9605 2.23195C14.6847 2.23195 14.4516 2.32717 14.2611 2.51763C14.0707 2.70808 13.9754 2.94123 13.9754 3.21706C13.9754 3.49289 14.0707 3.72603 14.2611 3.91649C14.4516 4.10695 14.6847 4.20217 14.9605 4.20217Z" fill="white"/>
</svg>
