<svg width="18" height="13" viewBox="0 0 18 13" fill="none" xmlns="http://www.w3.org/2000/svg">
<path d="M10.8483 7.33965C10.1945 7.33965 9.63878 7.10979 9.18114 6.65007C8.7235 6.19035 8.49468 5.63211 8.49468 4.97537C8.49468 4.31863 8.7235 3.7604 9.18114 3.30068C9.63878 2.84096 10.1945 2.6111 10.8483 2.6111C11.502 2.6111 12.0577 2.84096 12.5154 3.30068C12.973 3.7604 13.2018 4.31863 13.2018 4.97537C13.2018 5.63211 12.973 6.19035 12.5154 6.65007C12.0577 7.10979 11.502 7.33965 10.8483 7.33965ZM5.35657 9.70392C4.92508 9.70392 4.5557 9.54958 4.24843 9.24092C3.94116 8.93225 3.78752 8.56119 3.78752 8.12774V1.82301C3.78752 1.38956 3.94116 1.0185 4.24843 0.70983C4.5557 0.401161 4.92508 0.246826 5.35657 0.246826H16.3399C16.7714 0.246826 17.1408 0.401161 17.4481 0.70983C17.7554 1.0185 17.909 1.38956 17.909 1.82301V8.12774C17.909 8.56119 17.7554 8.93225 17.4481 9.24092C17.1408 9.54958 16.7714 9.70392 16.3399 9.70392H5.35657ZM6.92563 8.12774H14.7709C14.7709 7.69429 14.9245 7.32323 15.2318 7.01456C15.5391 6.70589 15.9085 6.55155 16.3399 6.55155V3.39919C15.9085 3.39919 15.5391 3.24486 15.2318 2.93619C14.9245 2.62752 14.7709 2.25646 14.7709 1.82301H6.92563C6.92563 2.25646 6.77199 2.62752 6.46472 2.93619C6.15744 3.24486 5.78806 3.39919 5.35657 3.39919V6.55155C5.78806 6.55155 6.15744 6.70589 6.46472 7.01456C6.77199 7.32323 6.92563 7.69429 6.92563 8.12774ZM15.5554 12.8563H2.21847C1.78698 12.8563 1.4176 12.7019 1.11032 12.3933C0.80305 12.0846 0.649414 11.7136 0.649414 11.2801V2.6111H2.21847V11.2801H15.5554V12.8563Z" fill="white"/>
</svg>
