<svg width="15" height="9" viewBox="0 0 15 9" fill="none" xmlns="http://www.w3.org/2000/svg">
<path d="M3.74514 2.18727V0.611084H14.7784V2.18727H3.74514ZM3.74514 5.33963V3.76345H14.7784V5.33963H3.74514ZM3.74514 8.492V6.91581H14.7784V8.492H3.74514ZM1.38086 2.18727C1.15757 2.18727 0.9704 2.11174 0.81935 1.96069C0.668299 1.80964 0.592773 1.62247 0.592773 1.39918C0.592773 1.17588 0.668299 0.988711 0.81935 0.83766C0.9704 0.686609 1.15757 0.611084 1.38086 0.611084C1.60416 0.611084 1.79133 0.686609 1.94238 0.83766C2.09343 0.988711 2.16896 1.17588 2.16896 1.39918C2.16896 1.62247 2.09343 1.80964 1.94238 1.96069C1.79133 2.11174 1.60416 2.18727 1.38086 2.18727ZM1.38086 5.33963C1.15757 5.33963 0.9704 5.26411 0.81935 5.11305C0.668299 4.962 0.592773 4.77483 0.592773 4.55154C0.592773 4.32825 0.668299 4.14108 0.81935 3.99002C0.9704 3.83897 1.15757 3.76345 1.38086 3.76345C1.60416 3.76345 1.79133 3.83897 1.94238 3.99002C2.09343 4.14108 2.16896 4.32825 2.16896 4.55154C2.16896 4.77483 2.09343 4.962 1.94238 5.11305C1.79133 5.26411 1.60416 5.33963 1.38086 5.33963ZM1.38086 8.492C1.15757 8.492 0.9704 8.41647 0.81935 8.26542C0.668299 8.11437 0.592773 7.9272 0.592773 7.7039C0.592773 7.48061 0.668299 7.29344 0.81935 7.14239C0.9704 6.99134 1.15757 6.91581 1.38086 6.91581C1.60416 6.91581 1.79133 6.99134 1.94238 7.14239C2.09343 7.29344 2.16896 7.48061 2.16896 7.7039C2.16896 7.9272 2.09343 8.11437 1.94238 8.26542C1.79133 8.41647 1.60416 8.492 1.38086 8.492Z" fill="white"/>
</svg>
