<svg width="16" height="14" viewBox="0 0 16 14" fill="none" xmlns="http://www.w3.org/2000/svg">
<path d="M5.76761 11.5276H14.4044V9.47799H5.76761V11.5276ZM1.84181 4.38276H4.19729V2.33318H1.84181V4.38276ZM1.84181 7.96475H4.19729V5.91516H1.84181V7.96475ZM1.84181 11.5276H4.19729V9.47799H1.84181V11.5276ZM5.76761 7.96475H14.4044V5.91516H5.76761V7.96475ZM5.76761 4.38276H14.4044V2.33318H5.76761V4.38276ZM1.84181 13.06C1.40997 13.06 1.04029 12.9099 0.732766 12.6098C0.425245 12.3097 0.271484 11.949 0.271484 11.5276V2.33318C0.271484 1.91177 0.425245 1.55102 0.732766 1.25092C1.04029 0.950829 1.40997 0.800781 1.84181 0.800781H14.4044C14.8362 0.800781 15.2059 0.950829 15.5134 1.25092C15.8209 1.55102 15.9747 1.91177 15.9747 2.33318V11.5276C15.9747 11.949 15.8209 12.3097 15.5134 12.6098C15.2059 12.9099 14.8362 13.06 14.4044 13.06H1.84181Z" fill="white"/>
</svg>
