<svg width="15" height="15" viewBox="0 0 15 15" fill="none" xmlns="http://www.w3.org/2000/svg">
<path d="M7.14848 11.492C7.37178 11.492 7.55895 11.4165 7.71 11.2654C7.86105 11.1144 7.93657 10.9272 7.93657 10.7039C7.93657 10.4806 7.86105 10.2935 7.71 10.1424C7.55895 9.99136 7.37178 9.91583 7.14848 9.91583C6.92519 9.91583 6.73802 9.99136 6.58697 10.1424C6.43592 10.2935 6.36039 10.4806 6.36039 10.7039C6.36039 10.9272 6.43592 11.1144 6.58697 11.2654C6.73802 11.4165 6.92519 11.492 7.14848 11.492ZM6.36039 8.33965H7.93657V3.6111H6.36039V8.33965ZM4.19314 14.6444L0.0556641 10.5069V4.59622L4.19314 0.45874H10.1038L14.2413 4.59622V10.5069L10.1038 14.6444H4.19314ZM4.86302 13.0682H9.43395L12.6651 9.83702V5.2661L9.43395 2.03492H4.86302L1.63185 5.2661V9.83702L4.86302 13.0682Z" fill="white"/>
</svg>
