<svg width="9" height="10" viewBox="0 0 9 10" fill="none" xmlns="http://www.w3.org/2000/svg">
<path d="M4.23991 6.64315L1.64748 3.67991C1.34153 3.33126 1.59018 2.78369 2.05451 2.78369H7.23937C7.34329 2.7836 7.44503 2.81347 7.53241 2.86971C7.61978 2.92596 7.6891 3.0062 7.73205 3.10082C7.775 3.19545 7.78976 3.30045 7.77457 3.40325C7.75938 3.50605 7.71488 3.60229 7.6464 3.68045L5.05397 6.64261C5.00323 6.70067 4.94066 6.7472 4.87046 6.77909C4.80025 6.81097 4.72404 6.82746 4.64694 6.82746C4.56984 6.82746 4.49362 6.81097 4.42342 6.77909C4.35322 6.7472 4.29065 6.70067 4.23991 6.64261V6.64315Z" fill="white"/>
</svg>
