<svg width="19" height="19" viewBox="0 0 19 19" fill="none" xmlns="http://www.w3.org/2000/svg">
<path d="M9.90886 3.91897C9.90886 3.70392 9.82344 3.49769 9.67138 3.34564C9.51933 3.19358 9.31309 3.10815 9.09805 3.10815C8.88301 3.10815 8.67678 3.19358 8.52472 3.34564C8.37267 3.49769 8.28724 3.70392 8.28724 3.91897V8.51356H3.69265C3.47761 8.51356 3.27137 8.59898 3.11932 8.75104C2.96726 8.9031 2.88184 9.10933 2.88184 9.32437C2.88184 9.53941 2.96726 9.74564 3.11932 9.8977C3.27137 10.0498 3.47761 10.1352 3.69265 10.1352H8.28724V14.7298C8.28724 14.9448 8.37267 15.151 8.52472 15.3031C8.67678 15.4552 8.88301 15.5406 9.09805 15.5406C9.31309 15.5406 9.51933 15.4552 9.67138 15.3031C9.82344 15.151 9.90886 14.9448 9.90886 14.7298V10.1352H14.5035C14.7185 10.1352 14.9247 10.0498 15.0768 9.8977C15.2288 9.74564 15.3143 9.53941 15.3143 9.32437C15.3143 9.10933 15.2288 8.9031 15.0768 8.75104C14.9247 8.59898 14.7185 8.51356 14.5035 8.51356H9.90886V3.91897Z" fill="white"/>
</svg>
