<svg width="19" height="19" viewBox="0 0 19 19" fill="none" xmlns="http://www.w3.org/2000/svg">
<path d="M18.7705 4.59448V16.5945C18.7705 17.1445 18.5747 17.6153 18.183 18.007C17.7913 18.3986 17.3205 18.5945 16.7705 18.5945H2.77051C2.22051 18.5945 1.74967 18.3986 1.35801 18.007C0.966341 17.6153 0.770508 17.1445 0.770508 16.5945V2.59448C0.770508 2.04448 0.966341 1.57365 1.35801 1.18198C1.74967 0.790316 2.22051 0.594482 2.77051 0.594482H14.7705L18.7705 4.59448ZM16.7705 5.44448L13.9205 2.59448H2.77051V16.5945H16.7705V5.44448ZM9.77051 15.5945C10.6038 15.5945 11.3122 15.3028 11.8955 14.7195C12.4788 14.1361 12.7705 13.4278 12.7705 12.5945C12.7705 11.7611 12.4788 11.0528 11.8955 10.4695C11.3122 9.88615 10.6038 9.59448 9.77051 9.59448C8.93717 9.59448 8.22884 9.88615 7.64551 10.4695C7.06217 11.0528 6.77051 11.7611 6.77051 12.5945C6.77051 13.4278 7.06217 14.1361 7.64551 14.7195C8.22884 15.3028 8.93717 15.5945 9.77051 15.5945ZM3.77051 7.59448H12.7705V3.59448H3.77051V7.59448ZM2.77051 5.44448V16.5945V2.59448V5.44448Z" fill="#E8EAED"/>
</svg>
